<svg xmlns="http://www.w3.org/2000/svg" xmlns:v="https://svgstorm.com"
viewBox = "0 0 225 225"
width="225"
height="225">
<g fill="None" fill-opacity="0.0" stroke="#FEFEFE" stroke-opacity="1.00" stroke-width="0.3"><path d="
M 0.00 225.00 
L 225.00 225.00
L 225.00 0.00
L 0.00 0.00
L 0.00 225.00
M 134.00 67.00 
C 143.79 62.23 159.23 61.84 168.69 66.31 C 178.15 70.77 186.48 77.57 189.92 87.08 C 193.37 96.59 196.12 112.52 187.70 120.69 C 179.27 128.87 161.15 122.28 149.00 124.00 C 136.85 125.72 118.70 122.71 106.00 124.00
C 104.69 91.78 52.71 92.07 51.00 124.00
C 30.84 125.66 24.77 100.73 25.00 84.00 C 25.23 67.27 34.20 51.44 48.25 41.25 C 62.30 31.05 84.36 28.81 100.22 34.78 C 116.09 40.74 128.18 51.09 134.00 67.00
M 45.00 128.00 
C 40.83 134.15 38.36 124.21 45.00 128.00
M 107.00 127.00 
C 108.40 162.86 49.08 163.24 51.00 127.00
C 69.67 127.00 88.33 127.00 107.00 127.00
M 186.00 127.00 
C 182.55 132.69 171.79 129.49 164.00 130.00 C 156.21 130.51 146.08 129.91 138.00 130.00 C 129.92 130.09 120.69 130.74 113.00 129.00
C 123.32 124.90 135.96 127.61 148.00 127.00 C 160.04 126.39 173.80 127.46 186.00 127.00
M 50.00 145.00 
C 50.13 147.96 46.43 149.10 44.00 149.00
C 43.87 146.04 47.57 144.90 50.00 145.00
M 165.00 179.00 
C 145.50 169.11 123.94 157.91 107.00 145.00
C 126.80 154.35 148.30 165.69 165.00 179.00
M 62.00 157.00 
C 62.41 161.56 58.21 168.84 54.00 171.00
C 54.86 165.79 58.04 160.45 62.00 157.00
M 121.00 201.00 
C 110.54 189.08 100.79 171.36 95.00 157.00
C 105.16 169.47 113.27 186.19 121.00 201.00
M 80.00 162.00 
C 80.00 172.00 80.00 182.00 80.00 192.00
C 75.00 190.52 76.99 181.60 77.00 177.00 C 77.01 172.40 74.95 163.48 80.00 162.00 Z"/>
</g>
<g fill="None" fill-opacity="0.0" stroke="#3598DB" stroke-opacity="1.00" stroke-width="0.3"><path d="
M 134.00 67.00 
C 128.18 51.09 116.09 40.74 100.22 34.78 C 84.36 28.81 62.30 31.05 48.25 41.25 C 34.20 51.44 25.23 67.27 25.00 84.00 C 24.77 100.73 30.84 125.66 51.00 124.00
C 52.71 92.07 104.69 91.78 106.00 124.00
C 118.70 122.71 136.85 125.72 149.00 124.00 C 161.15 122.28 179.27 128.87 187.70 120.69 C 196.12 112.52 193.37 96.59 189.92 87.08 C 186.48 77.57 178.15 70.77 168.69 66.31 C 159.23 61.84 143.79 62.23 134.00 67.00
M 121.00 56.00 
C 114.47 70.36 106.47 86.75 96.00 98.00
C 102.91 83.84 110.90 67.50 121.00 56.00
M 80.00 93.00 
C 73.89 86.90 77.52 71.87 78.00 63.00
C 82.57 71.15 78.74 83.31 80.00 93.00
M 167.00 78.00 
C 148.92 90.80 128.71 101.74 109.00 112.00
C 115.28 104.44 127.82 98.81 137.23 93.23 C 146.64 87.65 157.33 80.62 167.00 78.00
M 61.00 98.00 
C 57.43 95.84 52.95 89.20 54.00 85.00
C 57.40 88.16 61.46 93.72 61.00 98.00
M 49.00 111.00 
C 46.84 112.40 42.18 110.10 43.00 107.00
C 45.36 107.25 48.00 108.69 49.00 111.00 Z"/>
</g>
<g fill="None" fill-opacity="0.0" stroke="#EFF6FC" stroke-opacity="1.00" stroke-width="0.3"><path d="
M 121.00 56.00 
C 110.90 67.50 102.91 83.84 96.00 98.00
C 106.47 86.75 114.47 70.36 121.00 56.00 Z"/>
</g>
<g fill="None" fill-opacity="0.0" stroke="#E8F2FA" stroke-opacity="1.00" stroke-width="0.3"><path d="
M 80.00 93.00 
C 78.74 83.31 82.57 71.15 78.00 63.00
C 77.52 71.87 73.89 86.90 80.00 93.00 Z"/>
</g>
<g fill="None" fill-opacity="0.0" stroke="#EFF6FB" stroke-opacity="1.00" stroke-width="0.3"><path d="
M 167.00 78.00 
C 157.33 80.62 146.64 87.65 137.23 93.23 C 127.82 98.81 115.28 104.44 109.00 112.00
C 128.71 101.74 148.92 90.80 167.00 78.00 Z"/>
</g>
<g fill="None" fill-opacity="0.0" stroke="#EAF3FB" stroke-opacity="1.00" stroke-width="0.3"><path d="
M 61.00 98.00 
C 61.46 93.72 57.40 88.16 54.00 85.00
C 52.95 89.20 57.43 95.84 61.00 98.00 Z"/>
</g>
<g fill="None" fill-opacity="0.0" stroke="#EEF5FB" stroke-opacity="1.00" stroke-width="0.3"><path d="
M 49.00 111.00 
C 48.00 108.69 45.36 107.25 43.00 107.00
C 42.18 110.10 46.84 112.40 49.00 111.00 Z"/>
</g>
<g fill="None" fill-opacity="0.0" stroke="#51A3DE" stroke-opacity="1.00" stroke-width="0.3"><path d="
M 45.00 128.00 
C 38.36 124.21 40.83 134.15 45.00 128.00 Z"/>
</g>
<g fill="None" fill-opacity="0.0" stroke="#3698DB" stroke-opacity="1.00" stroke-width="0.3"><path d="
M 107.00 127.00 
C 88.33 127.00 69.67 127.00 51.00 127.00
C 49.08 163.24 108.40 162.86 107.00 127.00 Z"/>
</g>
<g fill="None" fill-opacity="0.0" stroke="#489FDD" stroke-opacity="1.00" stroke-width="0.3"><path d="
M 186.00 127.00 
C 173.80 127.46 160.04 126.39 148.00 127.00 C 135.96 127.61 123.32 124.90 113.00 129.00
C 120.69 130.74 129.92 130.09 138.00 130.00 C 146.08 129.91 156.21 130.51 164.00 130.00 C 171.79 129.49 182.55 132.69 186.00 127.00 Z"/>
</g>
<g fill="None" fill-opacity="0.0" stroke="#499FDE" stroke-opacity="1.00" stroke-width="0.3"><path d="
M 50.00 145.00 
C 47.57 144.90 43.87 146.04 44.00 149.00
C 46.43 149.10 50.13 147.96 50.00 145.00 Z"/>
</g>
<g fill="None" fill-opacity="0.0" stroke="#449EDD" stroke-opacity="1.00" stroke-width="0.3"><path d="
M 165.00 179.00 
C 148.30 165.69 126.80 154.35 107.00 145.00
C 123.94 157.91 145.50 169.11 165.00 179.00 Z"/>
</g>
<g fill="None" fill-opacity="0.0" stroke="#429DDC" stroke-opacity="1.00" stroke-width="0.3"><path d="
M 62.00 157.00 
C 58.04 160.45 54.86 165.79 54.00 171.00
C 58.21 168.84 62.41 161.56 62.00 157.00 Z"/>
</g>
<g fill="None" fill-opacity="0.0" stroke="#449EDD" stroke-opacity="1.00" stroke-width="0.3"><path d="
M 121.00 201.00 
C 113.27 186.19 105.16 169.47 95.00 157.00
C 100.79 171.36 110.54 189.08 121.00 201.00 Z"/>
</g>
<g fill="None" fill-opacity="0.0" stroke="#4EA2DE" stroke-opacity="1.00" stroke-width="0.3"><path d="
M 80.00 162.00 
C 74.95 163.48 77.01 172.40 77.00 177.00 C 76.99 181.60 75.00 190.52 80.00 192.00
C 80.00 182.00 80.00 172.00 80.00 162.00 Z"/>
</g>
<g fill="#FEFEFE" fill-opacity="1.00" stroke="None">
<path d="
M 0.00 225.00 
L 225.00 225.00
L 225.00 0.00
L 0.00 0.00
L 0.00 225.00
M 134.00 67.00 
C 143.79 62.23 159.23 61.84 168.69 66.31 C 178.15 70.77 186.48 77.57 189.92 87.08 C 193.37 96.59 196.12 112.52 187.70 120.69 C 179.27 128.87 161.15 122.28 149.00 124.00 C 136.85 125.72 118.70 122.71 106.00 124.00
C 104.69 91.78 52.71 92.07 51.00 124.00
C 30.84 125.66 24.77 100.73 25.00 84.00 C 25.23 67.27 34.20 51.44 48.25 41.25 C 62.30 31.05 84.36 28.81 100.22 34.78 C 116.09 40.74 128.18 51.09 134.00 67.00
M 45.00 128.00 
C 40.83 134.15 38.36 124.21 45.00 128.00
M 107.00 127.00 
C 108.40 162.86 49.08 163.24 51.00 127.00
C 69.67 127.00 88.33 127.00 107.00 127.00
M 186.00 127.00 
C 182.55 132.69 171.79 129.49 164.00 130.00 C 156.21 130.51 146.08 129.91 138.00 130.00 C 129.92 130.09 120.69 130.74 113.00 129.00
C 123.32 124.90 135.96 127.61 148.00 127.00 C 160.04 126.39 173.80 127.46 186.00 127.00
M 50.00 145.00 
C 50.13 147.96 46.43 149.10 44.00 149.00
C 43.87 146.04 47.57 144.90 50.00 145.00
M 165.00 179.00 
C 145.50 169.11 123.94 157.91 107.00 145.00
C 126.80 154.35 148.30 165.69 165.00 179.00
M 62.00 157.00 
C 62.41 161.56 58.21 168.84 54.00 171.00
C 54.86 165.79 58.04 160.45 62.00 157.00
M 121.00 201.00 
C 110.54 189.08 100.79 171.36 95.00 157.00
C 105.16 169.47 113.27 186.19 121.00 201.00
M 80.00 162.00 
C 80.00 172.00 80.00 182.00 80.00 192.00
C 75.00 190.52 76.99 181.60 77.00 177.00 C 77.01 172.40 74.95 163.48 80.00 162.00 Z"/>
</g>
<g fill="#3598DB" fill-opacity="1.00" stroke="None">
<path d="
M 134.00 67.00 
C 128.18 51.09 116.09 40.74 100.22 34.78 C 84.36 28.81 62.30 31.05 48.25 41.25 C 34.20 51.44 25.23 67.27 25.00 84.00 C 24.77 100.73 30.84 125.66 51.00 124.00
C 52.71 92.07 104.69 91.78 106.00 124.00
C 118.70 122.71 136.85 125.72 149.00 124.00 C 161.15 122.28 179.27 128.87 187.70 120.69 C 196.12 112.52 193.37 96.59 189.92 87.08 C 186.48 77.57 178.15 70.77 168.69 66.31 C 159.23 61.84 143.79 62.23 134.00 67.00
M 121.00 56.00 
C 114.47 70.36 106.47 86.75 96.00 98.00
C 102.91 83.84 110.90 67.50 121.00 56.00
M 80.00 93.00 
C 73.89 86.90 77.52 71.87 78.00 63.00
C 82.57 71.15 78.74 83.31 80.00 93.00
M 167.00 78.00 
C 148.92 90.80 128.71 101.74 109.00 112.00
C 115.28 104.44 127.82 98.81 137.23 93.23 C 146.64 87.65 157.33 80.62 167.00 78.00
M 61.00 98.00 
C 57.43 95.84 52.95 89.20 54.00 85.00
C 57.40 88.16 61.46 93.72 61.00 98.00
M 49.00 111.00 
C 46.84 112.40 42.18 110.10 43.00 107.00
C 45.36 107.25 48.00 108.69 49.00 111.00 Z"/>
</g>
<g fill="#EFF6FC" fill-opacity="1.00" stroke="None">
<path d="
M 121.00 56.00 
C 110.90 67.50 102.91 83.84 96.00 98.00
C 106.47 86.75 114.47 70.36 121.00 56.00 Z"/>
</g>
<g fill="#E8F2FA" fill-opacity="1.00" stroke="None">
<path d="
M 80.00 93.00 
C 78.74 83.31 82.57 71.15 78.00 63.00
C 77.52 71.87 73.89 86.90 80.00 93.00 Z"/>
</g>
<g fill="#EFF6FB" fill-opacity="1.00" stroke="None">
<path d="
M 167.00 78.00 
C 157.33 80.62 146.64 87.65 137.23 93.23 C 127.82 98.81 115.28 104.44 109.00 112.00
C 128.71 101.74 148.92 90.80 167.00 78.00 Z"/>
</g>
<g fill="#EAF3FB" fill-opacity="1.00" stroke="None">
<path d="
M 61.00 98.00 
C 61.46 93.72 57.40 88.16 54.00 85.00
C 52.95 89.20 57.43 95.84 61.00 98.00 Z"/>
</g>
<g fill="#EEF5FB" fill-opacity="1.00" stroke="None">
<path d="
M 49.00 111.00 
C 48.00 108.69 45.36 107.25 43.00 107.00
C 42.18 110.10 46.84 112.40 49.00 111.00 Z"/>
</g>
<g fill="#51A3DE" fill-opacity="1.00" stroke="None">
<path d="
M 45.00 128.00 
C 38.36 124.21 40.83 134.15 45.00 128.00 Z"/>
</g>
<g fill="#3698DB" fill-opacity="1.00" stroke="None">
<path d="
M 107.00 127.00 
C 88.33 127.00 69.67 127.00 51.00 127.00
C 49.08 163.24 108.40 162.86 107.00 127.00 Z"/>
</g>
<g fill="#489FDD" fill-opacity="1.00" stroke="None">
<path d="
M 186.00 127.00 
C 173.80 127.46 160.04 126.39 148.00 127.00 C 135.96 127.61 123.32 124.90 113.00 129.00
C 120.69 130.74 129.92 130.09 138.00 130.00 C 146.08 129.91 156.21 130.51 164.00 130.00 C 171.79 129.49 182.55 132.69 186.00 127.00 Z"/>
</g>
<g fill="#499FDE" fill-opacity="1.00" stroke="None">
<path d="
M 50.00 145.00 
C 47.57 144.90 43.87 146.04 44.00 149.00
C 46.43 149.10 50.13 147.96 50.00 145.00 Z"/>
</g>
<g fill="#449EDD" fill-opacity="1.00" stroke="None">
<path d="
M 165.00 179.00 
C 148.30 165.69 126.80 154.35 107.00 145.00
C 123.94 157.91 145.50 169.11 165.00 179.00 Z"/>
</g>
<g fill="#429DDC" fill-opacity="1.00" stroke="None">
<path d="
M 62.00 157.00 
C 58.04 160.45 54.86 165.79 54.00 171.00
C 58.21 168.84 62.41 161.56 62.00 157.00 Z"/>
</g>
<g fill="#449EDD" fill-opacity="1.00" stroke="None">
<path d="
M 121.00 201.00 
C 113.27 186.19 105.16 169.47 95.00 157.00
C 100.79 171.36 110.54 189.08 121.00 201.00 Z"/>
</g>
<g fill="#4EA2DE" fill-opacity="1.00" stroke="None">
<path d="
M 80.00 162.00 
C 74.95 163.48 77.01 172.40 77.00 177.00 C 76.99 181.60 75.00 190.52 80.00 192.00
C 80.00 182.00 80.00 172.00 80.00 162.00 Z"/>
</g>
</svg>